<svg width="800" height="800" xmlns="http://www.w3.org/2000/svg" version="1.1">

 <g>
  <title>Layer 1</title>
  <g transform="matrix(1, 0, 0, 1, 1024, 1024)" id="document">
   <path id="svg_1" fill="#FFFFFF" d="m-750.632,-898.31609c0,-68.974 -55.71,-124.684 -124.684,-124.684c-68.443,0 -124.153,55.71 -124.684,124.153c0.531,-16.978 14.326,-30.242 31.304,-30.242c16.978,0 31.303,13.795 31.303,31.304c0,74.2793 0,239.2866 0,311.975c0,51.465 41.915,93.38 93.381,93.38c51.465,0 93.38,-41.915 93.38,-93.38l0,-312.506z"/>
   <path id="svg_2" fill="#FFFFFF" d="m-501.264,-773.27319c0,-68.9741 -55.7099,-124.6839 -124.684,-124.6839c-68.4435,0 -124.153,55.7098 -124.684,124.1533c0.531,-16.9782 14.325,-30.2425 31.3037,-30.2425c16.9782,0 31.3036,13.7949 31.3036,31.3037c0,74.2798 0,239.2875 0,311.9755c0,51.465 41.915,93.38 93.3803,93.38c51.4653,0 93.3804,-41.915 93.3804,-93.38l0,-312.5061z"/>
   <path id="svg_3" fill="#FFFFFF" d="m-251.896,-633.03109c0,-68.9742 -55.71,-124.684 -124.684,-124.684c-68.444,0 -124.153,55.7098 -124.684,124.153c0.531,-16.978 14.325,-30.2421 31.304,-30.2421c16.978,0 31.303,13.7951 31.303,31.3041c0,74.279 0,239.287 0,311.975c0,51.465 41.915,93.38 93.38,93.38c51.466,0 93.381,-41.915 93.381,-93.38l0,-312.506z"/>
  </g>
 </g>
</svg>